<svg xmlns="http://www.w3.org/2000/svg" width="178" height="48" viewBox="0 0 178 48" role="img" aria-labelledby="title">
  <title id="title">Drafta</title>
  <path fill="#6651ef" d="M12 4h24a8 8 0 0 1 8 8v24a8 8 0 0 1-8 8H12a8 8 0 0 1-8-8V12a8 8 0 0 1 8-8Z"/>
  <path fill="#b8ef3f" d="m33 4 7 1a5 5 0 0 1 4 5v7l-14-3Z"/>
  <rect x="16" y="16" width="5" height="17" rx="2.5" fill="#fff"/>
  <rect x="26" y="11" width="5" height="27" rx="2.5" fill="#fff"/>
  <text x="57" y="35" fill="#1d1928" font-family="Arial,Helvetica,sans-serif" font-size="34" font-weight="700" letter-spacing="-1.3">drafta</text>
</svg>
